# xmcd
#
# Track frame offsets: 
#        150
#        4297
#        30545
#        51071
#        69554
#        92431
#        114946
#        137982
#        158772
#        178112
#        200467
#
# Disc length: 2960 seconds
#
# Revision: 0
# Processed by: cddbd v1.5.2PL0 Copyright (c) Steve Scherf et al.
# Submitted via: ExactAudioCopy v0.99pb5
#
DISCID=8c0b8e0b
DTITLE=Richard Bona - The Ten Shades of Blues
DYEAR=2009
DGENRE=Blues
TTITLE0=Track01 - Take One
TTITLE1=Track02 - Shiva Mantra
TTITLE2=Track03 - Good Times
TTITLE3=Track04 - M'Bemba Mama
TTITLE4=Track05 - Kurumalete
TTITLE5=Track06 - Souleymane
TTITLE6=Track07 - African Cowboy
TTITLE7=Track08 - Esukudu
TTITLE8=Track09 - Yara's Blues
TTITLE9=Track10 - Sona Moyo
TTITLE10=Track11 - Camer Secrets
EXTD=
EXTT0=
EXTT1=
EXTT2=
EXTT3=
EXTT4=
EXTT5=
EXTT6=
EXTT7=
EXTT8=
EXTT9=
EXTT10=
PLAYORDER=
